<svg id="visual" viewBox="0 0 600 600" width="600" height="600" xmlns="http://www.w3.org/2000/svg" xmlns:xlink="http://www.w3.org/1999/xlink" version="1.1"><rect width="600" height="600" fill="#931F1F"></rect><g><g transform="translate(585 421)"><path d="M80.8 -29.2C90.2 2.6 73.2 40 44.3 61.1C15.3 82.2 -25.6 86.9 -53.9 67.8C-82.2 48.8 -97.9 5.9 -86.8 -28.2C-75.7 -62.3 -37.9 -87.7 -1.1 -87.4C35.7 -87.1 71.4 -60.9 80.8 -29.2Z" stroke="#F7760E" fill="none" stroke-width="20"></path></g><g transform="translate(457 214)"><path d="M72.5 -20C83.1 9.3 73.6 48.8 49.1 66.3C24.5 83.8 -15 79.5 -41 59.8C-66.9 40.2 -79.3 5.2 -70.2 -22C-61.1 -49.1 -30.5 -68.5 0.2 -68.6C30.9 -68.6 61.8 -49.4 72.5 -20Z" stroke="#F7760E" fill="none" stroke-width="20"></path></g><g transform="translate(25 228)"><path d="M68.8 -22.4C78 5.9 66.5 40.8 43.6 56.8C20.6 72.7 -13.9 69.6 -36.9 52.5C-59.9 35.4 -71.5 4.2 -63.4 -22.6C-55.4 -49.3 -27.7 -71.7 1.1 -72C29.8 -72.4 59.6 -50.7 68.8 -22.4Z" stroke="#F7760E" fill="none" stroke-width="20"></path></g></g></svg>