<svg id="visual" viewBox="0 0 1280 300" width="1280" height="300" xmlns="http://www.w3.org/2000/svg" xmlns:xlink="http://www.w3.org/1999/xlink" version="1.1"><path d="M0 40L116 31L233 25L349 37L465 28L582 49L698 58L815 55L931 40L1047 34L1164 52L1280 58L1280 0L1164 0L1047 0L931 0L815 0L698 0L582 0L465 0L349 0L233 0L116 0L0 0Z" fill="#00cc8e"></path><path d="M0 136L116 148L233 112L349 127L465 100L582 133L698 136L815 97L931 109L1047 142L1164 157L1280 151L1280 56L1164 50L1047 32L931 38L815 53L698 56L582 47L465 26L349 35L233 23L116 29L0 38Z" fill="#00b98a"></path><path d="M0 232L116 214L233 211L349 214L465 247L582 202L698 199L815 232L931 238L1047 211L1164 247L1280 214L1280 149L1164 155L1047 140L931 107L815 95L698 134L582 131L465 98L349 125L233 110L116 146L0 134Z" fill="#00a784"></path><path d="M0 262L116 256L233 235L349 250L465 271L582 247L698 235L815 268L931 265L1047 253L1164 265L1280 262L1280 212L1164 245L1047 209L931 236L815 230L698 197L582 200L465 245L349 212L233 209L116 212L0 230Z" fill="#00957c"></path><path d="M0 301L116 301L233 301L349 301L465 301L582 301L698 301L815 301L931 301L1047 301L1164 301L1280 301L1280 260L1164 263L1047 251L931 263L815 266L698 233L582 245L465 269L349 248L233 233L116 254L0 260Z" fill="#038373"></path></svg>