<svg id="visual" viewBox="0 0 1280 300" width="1280" height="300" xmlns="http://www.w3.org/2000/svg" xmlns:xlink="http://www.w3.org/1999/xlink" version="1.1"><g stroke-width="1" stroke-linejoin="bevel"><path d="M596.9 86L724.1 0L584.9 0Z" fill="#246688" stroke="#246688"></path><path d="M596.9 86L736.1 75L724.1 0Z" fill="#246688" stroke="#246688"></path><path d="M736.1 75L832.3 0L724.1 0Z" fill="#112e42" stroke="#112e42"></path><path d="M451.7 102L538.9 206L596.9 86Z" fill="#277297" stroke="#277297"></path><path d="M596.9 86L741.1 226L736.1 75Z" fill="#112e42" stroke="#112e42"></path><path d="M538.9 206L741.1 226L596.9 86Z" fill="#297ea6" stroke="#297ea6"></path><path d="M736.1 75L878.3 128L832.3 0Z" fill="#297ea6" stroke="#297ea6"></path><path d="M584.9 0L451.7 102L596.9 86Z" fill="#1d4e6b" stroke="#1d4e6b"></path><path d="M584.9 0L431.7 0L451.7 102Z" fill="#19435d" stroke="#19435d"></path><path d="M741.1 226L878.3 128L736.1 75Z" fill="#205a7a" stroke="#205a7a"></path><path d="M422.7 300L605.9 300L538.9 206Z" fill="#1d4e6b" stroke="#1d4e6b"></path><path d="M538.9 206L605.9 300L741.1 226Z" fill="#246688" stroke="#246688"></path><path d="M605.9 300L728.1 300L741.1 226Z" fill="#15384f" stroke="#15384f"></path><path d="M741.1 226L853.3 226L878.3 128Z" fill="#15384f" stroke="#15384f"></path><path d="M728.1 300L853.3 226L741.1 226Z" fill="#0c2435" stroke="#0c2435"></path><path d="M298.4 134L391.7 183L451.7 102Z" fill="#0c2435" stroke="#0c2435"></path><path d="M451.7 102L391.7 183L538.9 206Z" fill="#246688" stroke="#246688"></path><path d="M878.3 128L956.6 120L832.3 0Z" fill="#1d4e6b" stroke="#1d4e6b"></path><path d="M971.6 217L956.6 120L878.3 128Z" fill="#112e42" stroke="#112e42"></path><path d="M956.6 120L993.6 0L832.3 0Z" fill="#297ea6" stroke="#297ea6"></path><path d="M728.1 300L884.3 300L853.3 226Z" fill="#112e42" stroke="#112e42"></path><path d="M853.3 226L971.6 217L878.3 128Z" fill="#112e42" stroke="#112e42"></path><path d="M391.7 183L422.7 300L538.9 206Z" fill="#205a7a" stroke="#205a7a"></path><path d="M431.7 0L301.4 0L451.7 102Z" fill="#00101c" stroke="#00101c"></path><path d="M391.7 183L303.4 300L422.7 300Z" fill="#246688" stroke="#246688"></path><path d="M884.3 300L971.6 217L853.3 226Z" fill="#112e42" stroke="#112e42"></path><path d="M1159.8 83L1146.8 0L993.6 0Z" fill="#00101c" stroke="#00101c"></path><path d="M301.4 0L298.4 134L451.7 102Z" fill="#1d4e6b" stroke="#1d4e6b"></path><path d="M132.2 209L275.4 225L298.4 134Z" fill="#19435d" stroke="#19435d"></path><path d="M298.4 134L275.4 225L391.7 183Z" fill="#246688" stroke="#246688"></path><path d="M275.4 225L303.4 300L391.7 183Z" fill="#19435d" stroke="#19435d"></path><path d="M884.3 300L1024.6 300L971.6 217Z" fill="#0c2435" stroke="#0c2435"></path><path d="M1159.8 83L993.6 0L956.6 120Z" fill="#15384f" stroke="#15384f"></path><path d="M301.4 0L176.2 0L298.4 134Z" fill="#1d4e6b" stroke="#1d4e6b"></path><path d="M275.4 225L132.2 300L303.4 300Z" fill="#00101c" stroke="#00101c"></path><path d="M1159.8 83L956.6 120L971.6 217Z" fill="#15384f" stroke="#15384f"></path><path d="M1170.8 205L1159.8 83L971.6 217Z" fill="#297ea6" stroke="#297ea6"></path><path d="M1024.6 300L1170.8 205L971.6 217Z" fill="#205a7a" stroke="#205a7a"></path><path d="M110.2 128L132.2 209L298.4 134Z" fill="#0c2435" stroke="#0c2435"></path><path d="M176.2 0L110.2 128L298.4 134Z" fill="#297ea6" stroke="#297ea6"></path><path d="M1024.6 300L1144.8 300L1170.8 205Z" fill="#246688" stroke="#246688"></path><path d="M0 300L132.2 300L132.2 209Z" fill="#081a28" stroke="#081a28"></path><path d="M132.2 209L132.2 300L275.4 225Z" fill="#15384f" stroke="#15384f"></path><path d="M1280 132L1159.8 83L1170.8 205Z" fill="#00101c" stroke="#00101c"></path><path d="M1280 132L1280 0L1159.8 83Z" fill="#15384f" stroke="#15384f"></path><path d="M1159.8 83L1280 0L1146.8 0Z" fill="#205a7a" stroke="#205a7a"></path><path d="M1280 238L1280 132L1170.8 205Z" fill="#1d4e6b" stroke="#1d4e6b"></path><path d="M176.2 0L0 0L110.2 128Z" fill="#246688" stroke="#246688"></path><path d="M110.2 128L0 201L132.2 209Z" fill="#112e42" stroke="#112e42"></path><path d="M0 0L0 98L110.2 128Z" fill="#112e42" stroke="#112e42"></path><path d="M1144.8 300L1280 238L1170.8 205Z" fill="#15384f" stroke="#15384f"></path><path d="M0 98L0 201L110.2 128Z" fill="#205a7a" stroke="#205a7a"></path><path d="M1144.8 300L1280 300L1280 238Z" fill="#00101c" stroke="#00101c"></path><path d="M0 201L0 300L132.2 209Z" fill="#112e42" stroke="#112e42"></path></g></svg>