<svg id="visual" viewBox="0 0 1280 300" width="1280" height="300" xmlns="http://www.w3.org/2000/svg" xmlns:xlink="http://www.w3.org/1999/xlink" version="1.1"><rect x="0" y="0" width="1280" height="300" fill="#0b4609"></rect><path d="M0 149L12.5 150.8C25 152.7 50 156.3 75.2 147.7C100.3 139 125.7 118 150.8 105.8C176 93.7 201 90.3 226 97.3C251 104.3 276 121.7 301 130.7C326 139.7 351 140.3 376.2 142.3C401.3 144.3 426.7 147.7 451.8 153.7C477 159.7 502 168.3 527 169.3C552 170.3 577 163.7 602.2 153.3C627.3 143 652.7 129 677.8 133.3C703 137.7 728 160.3 753 162.3C778 164.3 803 145.7 828.2 131.3C853.3 117 878.7 107 903.8 119.2C929 131.3 954 165.7 979 171.5C1004 177.3 1029 154.7 1054 145.3C1079 136 1104 140 1129.2 149.8C1154.3 159.7 1179.7 175.3 1204.8 176.2C1230 177 1255 163 1267.5 156L1280 149L1280 301L1267.5 301C1255 301 1230 301 1204.8 301C1179.7 301 1154.3 301 1129.2 301C1104 301 1079 301 1054 301C1029 301 1004 301 979 301C954 301 929 301 903.8 301C878.7 301 853.3 301 828.2 301C803 301 778 301 753 301C728 301 703 301 677.8 301C652.7 301 627.3 301 602.2 301C577 301 552 301 527 301C502 301 477 301 451.8 301C426.7 301 401.3 301 376.2 301C351 301 326 301 301 301C276 301 251 301 226 301C201 301 176 301 150.8 301C125.7 301 100.3 301 75.2 301C50 301 25 301 12.5 301L0 301Z" fill="#c62368"></path><path d="M0 207L12.5 192.2C25 177.3 50 147.7 75.2 131.5C100.3 115.3 125.7 112.7 150.8 122C176 131.3 201 152.7 226 169.5C251 186.3 276 198.7 301 197.5C326 196.3 351 181.7 376.2 173.3C401.3 165 426.7 163 451.8 170.2C477 177.3 502 193.7 527 196.5C552 199.3 577 188.7 602.2 187.2C627.3 185.7 652.7 193.3 677.8 190.3C703 187.3 728 173.7 753 173.3C778 173 803 186 828.2 182.8C853.3 179.7 878.7 160.3 903.8 146.7C929 133 954 125 979 133.3C1004 141.7 1029 166.3 1054 176.2C1079 186 1104 181 1129.2 168C1154.3 155 1179.7 134 1204.8 124.8C1230 115.7 1255 118.3 1267.5 119.7L1280 121L1280 301L1267.5 301C1255 301 1230 301 1204.8 301C1179.7 301 1154.3 301 1129.2 301C1104 301 1079 301 1054 301C1029 301 1004 301 979 301C954 301 929 301 903.8 301C878.7 301 853.3 301 828.2 301C803 301 778 301 753 301C728 301 703 301 677.8 301C652.7 301 627.3 301 602.2 301C577 301 552 301 527 301C502 301 477 301 451.8 301C426.7 301 401.3 301 376.2 301C351 301 326 301 301 301C276 301 251 301 226 301C201 301 176 301 150.8 301C125.7 301 100.3 301 75.2 301C50 301 25 301 12.5 301L0 301Z" fill="#cf3068"></path><path d="M0 148L12.5 155C25 162 50 176 75.2 185.5C100.3 195 125.7 200 150.8 193.5C176 187 201 169 226 163C251 157 276 163 301 168C326 173 351 177 376.2 179.5C401.3 182 426.7 183 451.8 188.3C477 193.7 502 203.3 527 196.2C552 189 577 165 602.2 165.3C627.3 165.7 652.7 190.3 677.8 196C703 201.7 728 188.3 753 181.3C778 174.3 803 173.7 828.2 178.5C853.3 183.3 878.7 193.7 903.8 197.2C929 200.7 954 197.3 979 191C1004 184.7 1029 175.3 1054 175.3C1079 175.3 1104 184.7 1129.2 183C1154.3 181.3 1179.7 168.7 1204.8 159.8C1230 151 1255 146 1267.5 143.5L1280 141L1280 301L1267.5 301C1255 301 1230 301 1204.8 301C1179.7 301 1154.3 301 1129.2 301C1104 301 1079 301 1054 301C1029 301 1004 301 979 301C954 301 929 301 903.8 301C878.7 301 853.3 301 828.2 301C803 301 778 301 753 301C728 301 703 301 677.8 301C652.7 301 627.3 301 602.2 301C577 301 552 301 527 301C502 301 477 301 451.8 301C426.7 301 401.3 301 376.2 301C351 301 326 301 301 301C276 301 251 301 226 301C201 301 176 301 150.8 301C125.7 301 100.3 301 75.2 301C50 301 25 301 12.5 301L0 301Z" fill="#d73b67"></path><path d="M0 212L12.5 211.2C25 210.3 50 208.7 75.2 200C100.3 191.3 125.7 175.7 150.8 171.5C176 167.3 201 174.7 226 175C251 175.3 276 168.7 301 168.7C326 168.7 351 175.3 376.2 187.2C401.3 199 426.7 216 451.8 224.2C477 232.3 502 231.7 527 220.5C552 209.3 577 187.7 602.2 185.3C627.3 183 652.7 200 677.8 205.3C703 210.7 728 204.3 753 205.8C778 207.3 803 216.7 828.2 218.3C853.3 220 878.7 214 903.8 212.2C929 210.3 954 212.7 979 205.8C1004 199 1029 183 1054 177.5C1079 172 1104 177 1129.2 182.8C1154.3 188.7 1179.7 195.3 1204.8 204C1230 212.7 1255 223.3 1267.5 228.7L1280 234L1280 301L1267.5 301C1255 301 1230 301 1204.8 301C1179.7 301 1154.3 301 1129.2 301C1104 301 1079 301 1054 301C1029 301 1004 301 979 301C954 301 929 301 903.8 301C878.7 301 853.3 301 828.2 301C803 301 778 301 753 301C728 301 703 301 677.8 301C652.7 301 627.3 301 602.2 301C577 301 552 301 527 301C502 301 477 301 451.8 301C426.7 301 401.3 301 376.2 301C351 301 326 301 301 301C276 301 251 301 226 301C201 301 176 301 150.8 301C125.7 301 100.3 301 75.2 301C50 301 25 301 12.5 301L0 301Z" fill="#df4667"></path><path d="M0 195L12.5 195.5C25 196 50 197 75.2 199C100.3 201 125.7 204 150.8 203.8C176 203.7 201 200.3 226 200.8C251 201.3 276 205.7 301 208.5C326 211.3 351 212.7 376.2 218.8C401.3 225 426.7 236 451.8 236C477 236 502 225 527 224.8C552 224.7 577 235.3 602.2 236.7C627.3 238 652.7 230 677.8 224.8C703 219.7 728 217.3 753 216.2C778 215 803 215 828.2 214.3C853.3 213.7 878.7 212.3 903.8 216.3C929 220.3 954 229.7 979 227C1004 224.3 1029 209.7 1054 209.2C1079 208.7 1104 222.3 1129.2 224C1154.3 225.7 1179.7 215.3 1204.8 211.2C1230 207 1255 209 1267.5 210L1280 211L1280 301L1267.5 301C1255 301 1230 301 1204.8 301C1179.7 301 1154.3 301 1129.2 301C1104 301 1079 301 1054 301C1029 301 1004 301 979 301C954 301 929 301 903.8 301C878.7 301 853.3 301 828.2 301C803 301 778 301 753 301C728 301 703 301 677.8 301C652.7 301 627.3 301 602.2 301C577 301 552 301 527 301C502 301 477 301 451.8 301C426.7 301 401.3 301 376.2 301C351 301 326 301 301 301C276 301 251 301 226 301C201 301 176 301 150.8 301C125.7 301 100.3 301 75.2 301C50 301 25 301 12.5 301L0 301Z" fill="#e75167"></path><path d="M0 220L12.5 219.8C25 219.7 50 219.3 75.2 225.7C100.3 232 125.7 245 150.8 250.2C176 255.3 201 252.7 226 251.8C251 251 276 252 301 247C326 242 351 231 376.2 227.2C401.3 223.3 426.7 226.7 451.8 230.5C477 234.3 502 238.7 527 243C552 247.3 577 251.7 602.2 250.5C627.3 249.3 652.7 242.7 677.8 237.7C703 232.7 728 229.3 753 229.2C778 229 803 232 828.2 237.3C853.3 242.7 878.7 250.3 903.8 246.5C929 242.7 954 227.3 979 227.3C1004 227.3 1029 242.7 1054 244.2C1079 245.7 1104 233.3 1129.2 226.3C1154.3 219.3 1179.7 217.7 1204.8 217.7C1230 217.7 1255 219.3 1267.5 220.2L1280 221L1280 301L1267.5 301C1255 301 1230 301 1204.8 301C1179.7 301 1154.3 301 1129.2 301C1104 301 1079 301 1054 301C1029 301 1004 301 979 301C954 301 929 301 903.8 301C878.7 301 853.3 301 828.2 301C803 301 778 301 753 301C728 301 703 301 677.8 301C652.7 301 627.3 301 602.2 301C577 301 552 301 527 301C502 301 477 301 451.8 301C426.7 301 401.3 301 376.2 301C351 301 326 301 301 301C276 301 251 301 226 301C201 301 176 301 150.8 301C125.7 301 100.3 301 75.2 301C50 301 25 301 12.5 301L0 301Z" fill="#ee5c67"></path><path d="M0 255L12.5 252.5C25 250 50 245 75.2 240.8C100.3 236.7 125.7 233.3 150.8 234.2C176 235 201 240 226 241.5C251 243 276 241 301 244C326 247 351 255 376.2 258.8C401.3 262.7 426.7 262.3 451.8 261C477 259.7 502 257.3 527 254.5C552 251.7 577 248.3 602.2 245.7C627.3 243 652.7 241 677.8 242.3C703 243.7 728 248.3 753 250C778 251.7 803 250.3 828.2 250.8C853.3 251.3 878.7 253.7 903.8 254.5C929 255.3 954 254.7 979 256.3C1004 258 1029 262 1054 264.2C1079 266.3 1104 266.7 1129.2 265.7C1154.3 264.7 1179.7 262.3 1204.8 257.2C1230 252 1255 244 1267.5 240L1280 236L1280 301L1267.5 301C1255 301 1230 301 1204.8 301C1179.7 301 1154.3 301 1129.2 301C1104 301 1079 301 1054 301C1029 301 1004 301 979 301C954 301 929 301 903.8 301C878.7 301 853.3 301 828.2 301C803 301 778 301 753 301C728 301 703 301 677.8 301C652.7 301 627.3 301 602.2 301C577 301 552 301 527 301C502 301 477 301 451.8 301C426.7 301 401.3 301 376.2 301C351 301 326 301 301 301C276 301 251 301 226 301C201 301 176 301 150.8 301C125.7 301 100.3 301 75.2 301C50 301 25 301 12.5 301L0 301Z" fill="#f46767"></path><path d="M0 259L12.5 261.8C25 264.7 50 270.3 75.2 270.2C100.3 270 125.7 264 150.8 263C176 262 201 266 226 270.3C251 274.7 276 279.3 301 280.7C326 282 351 280 376.2 277.7C401.3 275.3 426.7 272.7 451.8 270.7C477 268.7 502 267.3 527 266.5C552 265.7 577 265.3 602.2 265.3C627.3 265.3 652.7 265.7 677.8 263.8C703 262 728 258 753 257.8C778 257.7 803 261.3 828.2 262.8C853.3 264.3 878.7 263.7 903.8 266.3C929 269 954 275 979 276.2C1004 277.3 1029 273.7 1054 269.8C1079 266 1104 262 1129.2 261.5C1154.3 261 1179.7 264 1204.8 265C1230 266 1255 265 1267.5 264.5L1280 264L1280 301L1267.5 301C1255 301 1230 301 1204.8 301C1179.7 301 1154.3 301 1129.2 301C1104 301 1079 301 1054 301C1029 301 1004 301 979 301C954 301 929 301 903.8 301C878.7 301 853.3 301 828.2 301C803 301 778 301 753 301C728 301 703 301 677.8 301C652.7 301 627.3 301 602.2 301C577 301 552 301 527 301C502 301 477 301 451.8 301C426.7 301 401.3 301 376.2 301C351 301 326 301 301 301C276 301 251 301 226 301C201 301 176 301 150.8 301C125.7 301 100.3 301 75.2 301C50 301 25 301 12.5 301L0 301Z" fill="#fa7268"></path></svg>